PathFileType	4	(X/Y/Z)	3_2_91_p1_0-273.trc
DataRate	CameraRate	NumFrames	NumMarkers	Units	OrigDataRate	OrigDataStartFrame	OrigNumFrames
58.0	58.0	4	27	m	58.0	0	274
Frame#	Time	RHip			RKnee			RAnkle			RBigToe			RSmallToe			RHeel			LHip			LKnee			LAnkle			LBigToe			LSmallToe			LHeel			Neck			Head			Nose			RShoulder			RElbow			RWrist			RThumb			RIndex			RPinky			LShoulder			LElbow			LWrist			LThumb			LIndex			LPinky			
		X1	Y1	Z1	X2	Y2	Z2	X3	Y3	Z3	X4	Y4	Z4	X5	Y5	Z5	X6	Y6	Z6	X7	Y7	Z7	X8	Y8	Z8	X9	Y9	Z9	X10	Y10	Z10	X11	Y11	Z11	X12	Y12	Z12	X13	Y13	Z13	X14	Y14	Z14	X15	Y15	Z15	X16	Y16	Z16	X17	Y17	Z17	X18	Y18	Z18	X19	Y19	Z19	X20	Y20	Z20	X21	Y21	Z21	X22	Y22	Z22	X23	Y23	Z23	X24	Y24	Z24	X25	Y25	Z25	X26	Y26	Z26	X27	Y27	Z27	
0	0.0	0.2089155944379732	0.411667169481539	0.9929404872391201	0.19615362628701935	0.47438864483895105	1.368861905897885	0.15484213820537596	0.5237998162690732	1.7916558912174163	0.17631355957928968	0.2964429301772794	1.8218478711939463	0.2368264593023323	0.37713804200564127	1.8468031038602155	0.14056892701330745	0.53115366561115	1.8270252726434768	0.005211589107748377	0.37429931457041576	0.9752294481955638	-0.013893331251149738	0.3962074872853882	1.3351454323963805	-0.00611814815853728	0.43457559548835095	1.7396385525230778	0.0073708235343977364	0.24726338399794207	1.804565795940111	-0.05390948056463179	0.28530171780367286	1.7893678538055402	0.0017051251276351013	0.520117773451031	1.8309941221041253	0.11776584414099747	0.3857347839238377	0.35697156228138205	0.1513078089807907	0.3126587574546171	0.10742766663411536	0.14874747548040207	0.25736618537121386	0.2521336853096603	0.28533176406810035	0.4172375647937989	0.4700810166731174	0.3176936016414038	0.3096009990120919	0.7318660876102504	0.12575425144543445	0.13401057784412151	0.8133185086319017	0.0320959556076556	0.062480512242444206	0.7896862249512389	0.013254190541835584	0.07181118334304587	0.8102244261915608	0.0259653572790689	0.10685778150606481	0.8789405129037988	-0.033497813865736005	0.35610279363960406	0.4472465915335744	-0.04384973850678254	0.2654681006038263	0.706367671899003	0.07760680457417528	0.1504269927383066	0.9449317226596671	0.15773939807216958	0.11686151259850279	0.9896618764387412	0.15496401998725104	0.09919869700029763	1.0107933085047913	0.10587552637400414	0.12867903138994735	1.036741584220646
1	0.017241379310344827	0.2097422838636022	0.4119468652833563	0.9873003152673656	0.2014449167408021	0.45534738455442797	1.3604666281955489	0.15403014209256322	0.5217870438630986	1.785717873651311	0.18164753678039178	0.2823870061278337	1.812653599420014	0.24103044793386225	0.3791116104460352	1.8471971098014075	0.14055507697872482	0.5321746969371921	1.822270428905037	0.0015832439857468563	0.3722777193086865	0.970539111756276	-0.010438519956900406	0.39636651413428353	1.334437383705636	-0.006175688030912922	0.4344840647292516	1.7394111658815532	0.0016253590664361182	0.2635055046114101	1.8192297405667917	-0.05380833365717695	0.28555128492044085	1.7890242127782787	0.0010149175227013919	0.5206117264069681	1.8263593425481117	0.11774002591108747	0.3857395421068036	0.357035623013474	0.15132410137871152	0.31246112565262363	0.10763058665408284	0.14885454415475363	0.2574151947945699	0.25225999102540786	0.2852420046983633	0.4172355739838148	0.4701642883160724	0.32190487403520424	0.2958327659097718	0.7285880209054615	0.12046166511444896	0.14579912250211632	0.8168837944456163	0.01350583080779382	0.11821688132783788	0.7954362228742978	0.003187792937334851	0.10706453695862723	0.820319954157796	0.015836712492664003	0.14032716265438344	0.888690967005167	-0.03362124469879864	0.356749366156341	0.44398516055551096	-0.04895259172517983	0.28322508039194655	0.7104727874552433	0.06677113355420299	0.17610086277500178	0.9458694686008059	0.15829180775777793	0.12962120147571315	0.9873242528716328	0.15658604695565395	0.12236948276797904	1.0185766006712664	0.10861360068384239	0.1412076744237979	1.0417443119535412
2	0.034482758620689655	0.20985585080272923	0.4117027206402413	0.9877701057811346	0.20108328776500667	0.4565316663191591	1.3567487868809012	0.1552260039059757	0.5222816746045846	1.7808366246882747	0.18170674939720655	0.2824960703260668	1.8123628589259067	0.24106159899158397	0.37940972166801273	1.847115688740027	0.1453912646748501	0.5339285753052913	1.8172601696669493	0.0014810665066861749	0.3717729326601481	0.9707516856773828	-0.009864191658788844	0.3983105108707617	1.3397352673861822	-0.007592884156730858	0.45293629306943156	1.7496098193349539	-0.0046941223507394846	0.2774900845502306	1.8281654763239843	-0.05238080670186746	0.29794899170250483	1.7961095561146105	0.0024230241462256984	0.5206654316183026	1.8209111563376064	0.11775238422946249	0.3856465447391388	0.35706750954120936	0.1552813225440678	0.31517306815513235	0.10754037740248826	0.14891291932166822	0.25739228565383165	0.25229658239932495	0.285011740479928	0.415841154064538	0.46642015445119334	0.3217158911963851	0.295795419365176	0.7288339536668271	0.11351582999351104	0.16717083644390407	0.8232374708306742	0.010192005410872925	0.14033095601845688	0.8038189998527799	0.008959397371125725	0.14099850768717007	0.8329748596890638	0.015456155142658051	0.14301933558405233	0.8927247532788709	-0.03311761805193834	0.3565441155623198	0.4441537549890208	-0.04281835278700705	0.2726408506751554	0.7183111645825775	0.06133425666170851	0.19082244933810802	0.9542860818850882	0.15331770987172388	0.144141042457473	0.9958787284775531	0.15502954406589103	0.127049400352525	1.0202134611109046	0.10405039850668704	0.15603334378021771	1.0569937077879306
3	0.05172413793103448	0.20895753678629847	0.41175763502494617	0.9931355394685556	0.20105817915894755	0.4565829861386936	1.3566197893622283	0.1552029011914863	0.5223711876313023	1.7809548502759407	0.18162186457188956	0.28240399042547315	1.812298425775156	0.23668837343667495	0.3769017640036002	1.8458684349829861	0.14497907016295633	0.5360061513758896	1.8138195433130242	-4.080714752912368e-05	0.3714329512118935	0.9786466607678826	-0.009297397583325205	0.4001202926323065	1.3449296198378051	-0.008442655246762762	0.4532228749114661	1.7541187336213326	0.001641828345272758	0.26344402442355463	1.819309339011775	-0.05353664771185772	0.29795050163194065	1.8008995343086731	0.001055546409081572	0.5210435288880664	1.826752645037846	0.11775162564970824	0.38549736206863994	0.35705351882783704	0.15530225465622235	0.315318752202668	0.10750257904108479	0.14894210306725625	0.2575858120349122	0.252333220292906	0.2811670077153341	0.41384492639091686	0.46631892462267877	0.31296448270370697	0.32289413249908694	0.7350801966040172	0.113543798894308	0.16764252846462407	0.8236563766267857	0.014165279274295145	0.13128744569098813	0.8059526549852416	0.008685448149451888	0.14153994090218613	0.8363817600843557	0.01712454360720492	0.15570386014948798	0.9007546944407828	-0.033521028118579835	0.3561329143015501	0.447634187263402	-0.05049465720388206	0.27554001670678085	0.7191870035556871	0.05231005555186855	0.20269833710416607	0.9621280882602724	0.13841559201484663	0.17006772869825296	0.9974300684747681	0.13476850649834002	0.1631085887058302	1.0335843634235835	0.10337608878046364	0.15491456034059695	1.0534218853349555
